{"title":"The Trials of Cate McCall 2013 HDRip x264 AC3-MiLLENiUM","uid":10096619,"size":1043286352,"categoryP":"video","categoryS":"hd___movies","magnet":"?xt=urn:btih:519190df76079f10d31937d709aeb8ef3fa27ba1&amp;dn=The+Trials+of+Cate+McCall+2013+HDRip+x264+AC3-MiLLENiUM&amp;tr=udp%3A%2F%2Ftracker.openbittorrent.com%3A80&amp;tr=udp%3A%2F%2Fopen.demonii.com%3A1337&amp;tr=udp%3A%2F%2Ftracker.coppersurfer.tk%3A6969&amp;tr=udp%3A%2F%2Fexodus.desync.com%3A6969","seeders":1,"leechers":0,"uploader":"lokioddin","files":4,"time":1399312257,"description":"SilverTorrent - Clean And Verified Torrents Download\n\n\n\nThe Trials of Cate McCall 2013 HDRip x264 AC3-MiLLENiUM \n\n\n &lt;a href=&quot;\thttp://www.imdb.com/title/tt1323973/&quot; rel=&quot;nofollow&quot; target=&quot;_NEW&quot;&gt;\thttp://www.imdb.com/title/tt1323973/&lt;/a&gt;\n\n[img]http://s23.postimg.org/ucgc57o3v/MV5_BMTQ0_MTUw_Nj_I4_MF5_BMl5_Ban_Bn_Xk_Ft_ZTgw_OTk4_MDk3_MDE.jpg[/img]\n\nFormat                                   : Matroska\nFormat version                           : Version 2\nFile size                                : 975 MiB\nDuration                                 : 1h 24mn\nOverall bit rate mode                    : Variable\nOverall bit rate                         : 1 617 Kbps\nEncoded date                             : UTC 2014-05-05 14:48:59\nWriting application                      : mkvmerge v6.9.1 ('Blue Panther') 32bit built on Apr 18 2014 18:15:44\nWriting library                          : libebml v1.3.0 + libmatroska v1.4.1\n\nVideo\nID                                       : 1\nFormat                                   : AVC\nFormat/Info                              : Advanced Video Codec\nFormat profile                           : &lt;a class=&quot;__cf_email__&quot; href=&quot;/cdn-cgi/l/email-protection&quot; data-cfemail=&quot;0e466769664e423a203f&quot;&gt;[email&amp;#160;protected]&lt;/a&gt;&lt;script cf-hash='f9e31' type=&quot;text/javascript&quot;&gt;\n/* &lt;![CDATA[ */!function(){try{var t=&quot;currentScript&quot;in document?document.currentScript:function(){for(var t=document.getElementsByTagName(&quot;script&quot;),e=t.length;e--;)if(t[e].getAttribute(&quot;cf-hash&quot;))return t[e]}();if(t&amp;&amp;t.previousSibling){var e,r,n,i,c=t.previousSibling,a=c.getAttribute(&quot;data-cfemail&quot;);if(a){for(e=&quot;&quot;,r=parseInt(a.substr(0,2),16),n=2;a.length-n;n+=2)i=parseInt(a.substr(n,2),16)^r,e+=String.fromCharCode(i);e=document.createTextNode(e),c.parentNode.replaceChild(e,c)}}}catch(u){}}();/* ]]&gt; */&lt;/script&gt;\nFormat settings, CABAC                   : Yes\nFormat settings, ReFrames                : 3 frames\nCodec ID                                 : V_MPEG4/ISO/AVC\nDuration                                 : 1h 24mn\nBit rate mode                            : Variable\nBit rate                                 : 1 200 Kbps\nMaximum bit rate                         : 40.0 Mbps\nWidth                                    : 720 pixels\nHeight                                   : 400 pixels\nDisplay aspect ratio                     : 16:9\nFrame rate mode                          : Constant\nFrame rate                               : 23.976 fps\nColor space                              : YUV\nChroma subsampling                       : 4:2:0\nBit depth                                : 8 bits\nScan type                                : Progressive\nBits/(Pixel*Frame)                       : 0.174\nStream size                              : 724 MiB (74%)\nWriting library                          : x264 core 142 r2409 d6b4e63\n\nAudio\nID                                       : 2\nFormat                                   : AC-3\nFormat/Info                              : Audio Coding 3\nMode extension                           : CM (complete main)\nFormat settings, Endianness              : Big\nCodec ID                                 : A_AC3\nDuration                                 : 1h 24mn\nBit rate mode                            : Constant\nBit rate                                 : 384 Kbps\nChannel(s)                               : 6 channels\nChannel positions                        : Front: L C R, Side: L R, LFE\nSampling rate                            : 48.0 KHz\nBit depth                                : 16 bits\nCompression mode                         : Lossy\nDelay relative to video                  : 32ms\nStream size                              : 232 MiB (24%)\nLanguage                                 : English\nDefault                                  : Yes\nForced                                   : No\n\nPlot\n\nIn order to be reinstated to the bar and recover custody of her daughter, a hotshot lawyer, now in recovery and on probation, must take on the appeal of a woman wrongfully convicted of murder.\n\nScreenshots\n &lt;a href=&quot;\nhttp://s10.postimg.org/4eo450il5/vlcsnap_2014_05_05_15h52m31s79.png&quot; rel=&quot;nofollow&quot; target=&quot;_NEW&quot;&gt;\nhttp://s10.postimg.org/4eo450il5/vlcsnap_2014_05_05_15h52m31s79.png&lt;/a&gt;\n &lt;a href=&quot;\nhttp://s10.postimg.org/77hbp1ixl/vlcsnap_2014_05_05_15h52m39s161.png&quot; rel=&quot;nofollow&quot; target=&quot;_NEW&quot;&gt;\nhttp://s10.postimg.org/77hbp1ixl/vlcsnap_2014_05_05_15h52m39s161.png&lt;/a&gt;\n &lt;a href=&quot;\nhttp://s10.postimg.org/rdktnxel5/vlcsnap_2014_05_05_15h52m48s250.png&quot; rel=&quot;nofollow&quot; target=&quot;_NEW&quot;&gt;\nhttp://s10.postimg.org/rdktnxel5/vlcsnap_2014_05_05_15h52m48s250.png&lt;/a&gt;\n\n\n\n\nSilverTorrent - Clean And Verified Torrents Download\n\n","torrent":{"xt":"urn:btih:519190df76079f10d31937d709aeb8ef3fa27ba1","amp;dn":"The+Trials+of+Cate+McCall+2013+HDRip+x264+AC3-MiLLENiUM","amp;tr":["udp%3A%2F%2Ftracker.openbittorrent.com%3A80","udp%3A%2F%2Fopen.demonii.com%3A1337","udp%3A%2F%2Ftracker.coppersurfer.tk%3A6969","udp%3A%2F%2Fexodus.desync.com%3A6969"],"infoHash":"519190df76079f10d31937d709aeb8ef3fa27ba1","infoHashBuffer":{"type":"Buffer","data":[81,145,144,223,118,7,159,16,211,25,55,215,9,174,184,239,63,162,123,161]},"announce":[],"urlList":[]}}